PathFileType	4	(X/Y/Z)	/tmp/tmphz8i29mk/org-f5e79b5e/32898/baseball-pitching/20220928/session_662820_hawkeye/trc/001_10A17836-7AA3-4221-8461-2F40718F5DA8.trc
DataRate	CameraRate	NumFrames	NumMarkers	Units	OrigDataRate	OrigDataStartFrame	OrigNumFrames
303.03030303030306	303.03030303030306	16	13	mm	303.03030303030306	228	908
Frame#	Time	LSJC			RSJC			LEJC			REJC			LWJC			RWJC			LHJC			RHJC			LKJC			RKJC			LAJC			RAJC			NECK		
		X1	Y1	Z1	X2	Y2	Z2	X3	Y3	Z3	X4	Y4	Z4	X5	Y5	Z5	X6	Y6	Z6	X7	Y7	Z7	X8	Y8	Z8	X9	Y9	Z9	X10	Y10	Z10	X11	Y11	Z11	X12	Y12	Z12	X13	Y13	Z13

228	0.7491	-117.97650365972082	213.7264499024557	1844.5238946316879	-215.84803060574447	-182.58853967153667	1853.017134153894	-85.17922582744369	228.1926684638999	1559.4492519371347	-110.02526121373437	-332.2154288707602	1615.5097283831205	59.56344485368447	43.31444183637313	1684.33332729919	32.259183527496056	-130.2496363210718	1710.8851581937342	-141.99439140759154	104.04374238880149	1320.812864719036	-223.60760170554363	-118.24587540479813	1309.248738317704	-26.281228560826612	110.67014486285568	894.0613488190619	-157.82973187051874	-96.4390032600641	871.4280866474529	-264.8323031705808	88.27504826904175	534.1434121535179	-183.04426893815025	-103.36037265509854	428.8286425699854	-128.9723336855966	10.953794327046076	1853.3829540697043
229	0.7524	-117.49266272604463	213.54691230273397	1844.8574169579203	-215.84986114886198	-182.48859331980512	1853.5243375034102	-85.81726738259715	226.2598730623352	1559.8054258722996	-108.85578837744268	-332.72192203594165	1617.035029016101	59.61608893596193	42.44198700921393	1685.905528085106	32.46501748843711	-130.32352921388073	1713.5548451139534	-140.28642424444834	103.54836659608948	1321.3468591532583	-224.90635675926947	-117.56233887462625	1308.8530191140549	-19.55245023338951	109.6029184421219	896.074628848778	-158.93100046082373	-97.75726544036455	870.9376460297337	-259.68343226889624	88.14595060837628	537.8821363264249	-184.6424145435692	-103.84910707504113	428.9345467179805	-128.79044458340806	10.926396197504165	1853.3948465005567
230	0.7557	-117.07634353493275	213.40389421639776	1845.0467725625367	-215.87992747899003	-182.42420699052877	1854.086438894887	-86.22521135301821	224.42936609315007	1560.0469753498278	-107.74102557921948	-333.23632227431	1618.5886218381054	59.958988764122786	41.77675747112616	1687.406457724543	32.738707637059015	-130.52744683916828	1716.2813601856162	-138.69508268865823	102.79625716390294	1321.9494711528364	-226.25556239679224	-117.10779335879542	1308.4546866232465	-12.72254113216356	108.60359244396537	898.2909938035465	-160.05502725591512	-99.05208913263847	870.4654673178632	-254.2006126267466	88.18629478800516	541.7040531219371	-186.15388568817707	-104.25217672015641	429.1312036077517	-128.70511558279978	10.905689455926138	1853.4205621566728
231	0.759	-116.77014046913337	213.2749910566659	1845.080456673744	-216.00520331181164	-182.37968701511878	1854.744650645075	-86.28100892304185	222.82869962571039	1560.209703727412	-106.61560719739782	-333.6192959053561	1620.199341531511	60.56461148168225	41.377685522394025	1688.959220798641	32.972701776258035	-130.62048766516347	1719.1784704500387	-137.30299028456525	101.75585842298206	1322.6512186490977	-227.59370584237212	-116.97173947182122	1308.0664544749493	-5.785598088157119	107.62301767098523	900.78852554523	-161.1082377233619	-100.40535023782145	870.0298756711494	-248.32816951113608	88.42887418271431	545.6158576111776	-187.40517788206233	-104.6212166159701	429.3894020977886	-128.74125663170722	10.886483341077732	1853.4781562688968
232	0.7623	-116.56243476490002	213.14558562663143	1844.994363169125	-216.20396641476512	-182.37715297544614	1855.465603927623	-85.96228405091962	221.46341318737092	1560.3276591409099	-105.47663583708236	-333.88563775914065	1621.8200255157476	61.385552790061695	41.20212227654483	1690.6031824361137	33.17534109324352	-130.61572605493774	1722.180790519953	-136.0862864345768	100.49448124927632	1323.432531815922	-228.89906753331232	-117.09423258272898	1307.6850336997986	1.2643571428554696	106.6558985858828	903.5557818302171	-162.0878463352001	-101.76064500672732	869.6217466625723	-242.0381927228177	88.81714819113812	549.5796581796676	-188.40586964060893	-104.9088027895929	429.69009460270496	-128.8869029359517	10.849928654414672	1853.5611301438025
233	0.7656	-116.44101963391154	213.0031753602848	1844.8223399747183	-216.45726959091533	-182.43373339684294	1856.218778402995	-85.25896983418667	220.33378193739966	1560.4329291751876	-104.32293622071025	-334.0503710847057	1623.410269090134	62.37361808636946	41.20754249370522	1692.3723590279715	33.35466917107635	-130.52742820537512	1725.2299663120446	-135.01975353488265	99.07635334128949	1324.2735514991396	-230.14995729839194	-117.41759513694883	1307.3081464590498	8.425184617064598	105.69263113575387	906.5780184651422	-162.9927018236145	-103.06646641182834	869.2330752567163	-235.3199693628693	89.29489626880527	553.5621385534312	-189.1690973006637	-105.07616184271231	430.01653595444725	-129.12965704876262	10.780733512198793	1853.6636458720857
234	0.7689	-116.39276104292365	212.83743077395408	1844.5969178370078	-216.74835487966138	-182.56187185715802	1856.9771461898652	-84.17260480211147	219.4356602956498	1560.5565972482675	-103.15485545690622	-334.12867051022744	1624.9367545116932	63.48032210574716	41.35187234741988	1694.294643292157	33.51859236121785	-130.37073349679227	1728.2748401316107	-134.07748382297015	97.56260166282665	1325.1545134669755	-231.32505803703881	-117.88653127335789	1306.9348518314225	15.687163565940487	104.71953500418088	909.8369122860552	-163.8237889829049	-104.27610816088466	868.8572704351395	-228.17810304322555	89.80681938068385	557.5336256609539	-189.71196358705632	-105.09261903839041	430.3544516820232	-129.45626451760154	10.66692830308277	1853.781123723283
235	0.7722	-116.40315138710935	212.6403132445057	1844.3500272392178	-217.062097448692	-182.76931881794604	1857.7174778714932	-82.7171067956432	218.76049942025085	1560.729060219325	-101.97416645934081	-334.1360193987574	1626.3734617761052	64.65675353049946	41.593382217124194	1696.3902794431895	33.674990763035204	-130.1615029061242	1731.2713089108374	-133.2331171736743	96.01178507471255	1326.0559024733404	-232.403999716721	-118.44755459333601	1306.5658268330749	23.033143817437622	103.71900684861559	913.3095296244732	-164.58499561217553	-105.34770859498326	868.489356670237	-220.63217329031394	90.29854893300373	561.4671449943928	-190.0566483490368	-104.93546097830493	430.69208727581173	-129.85206261117307	10.499832328155286	1853.9105635240096
236	0.7755	-116.45618422644972	212.40625454394947	1844.1131672956908	-217.38477816838414	-183.05902842748768	1858.420614725492	-80.91925412854532	218.2956135380911	1560.9794914863858	-100.78402533658289	-334.0880926292633	1627.7017987959944	65.85389936389198	41.89115207739129	1698.6701083428006	33.83164362258726	-129.91591859423644	1734.1823332945164	-132.46043182732762	94.47995963368272	1326.9587339145066	-233.36805038500825	-119.04889758002382	1306.2036000445578	30.438899043671903	102.66973499483052	916.9677739922232	-165.2837911217406	-106.24447954438033	868.1261792900091	-212.7159887287189	90.71681490768816	565.3376990177827	-190.23108147970635	-104.5898316403511	431.02030739760266	-130.30077684159798	10.274128782767267	1854.0507098516448
237	0.7788	-116.5344432698597	212.1322520554121	1843.9173773756422	-217.70401542409482	-183.42919502440816	1859.0714146655464	-78.81839763218115	218.0249364765132	1561.3349142698291	-99.58900034349168	-334.00045686903724	1628.9102010511551	67.0230378048355	42.20574561973928	1701.1342216396617	33.996059134046675	-129.64997495994803	1736.9774863496882	-131.73410302481358	93.02090218924215	1327.8447480894422	-234.2005359249729	-119.64040988510159	1305.8527229467109	37.87363404000713	101.54676049866053	920.7783915433412	-165.93172892578107	-106.9344279828273	867.7665431846222	-204.47602886226016	91.00915557676427	569.1214054646007	-190.26912519369165	-104.04812016724674	431.3325893659952	-130.78457568519661	9.98785010746082	1854.2020457651367
238	0.7821	-116.61911972678656	211.81808625254368	1843.7929890067928	-218.00878552838668	-183.87296948676263	1859.6586005542367	-76.46728015184641	217.92910570188968	1561.8185621311004	-98.39525163436807	-333.88841112469476	1629.993831341079	68.11609588823282	42.49974330130882	1703.770113657532	34.17522499923829	-129.3791021829467	1739.6325221557518	-131.0302050776219	91.68640157205925	1328.6964797130336	-234.88757989572323	-120.17321086701573	1305.5198372263642	45.30024264060335	100.3216022624639	924.7025056775574	-166.54511492930402	-107.39051982775547	867.4112553395275	-195.97118809651414	91.1235689520489	572.7948479618219	-190.21123105884746	-103.30989509483673	431.62496862347706	-131.2840483651828	9.64259659464204	1854.3665769609158
239	0.7854	-116.69017374208762	211.4664883384006	1843.7691197523168	-218.28958697762374	-184.37826004452324	1860.174397787689	-73.93216148771944	217.9859181988192	1562.4479290794325	-97.2108139876621	-333.7666691777873	1630.9539201423945	69.08623248976548	42.73849680425296	1706.5513248078332	34.37527260641012	-129.11772641604094	1742.1286610373136	-130.32685548641334	90.52652008702938	1329.4972485063006	-235.41864957749212	-120.59945744279945	1305.213638005102	52.675670236969864	98.9622865137611	928.6956816015052	-167.14549099524697	-107.59056646651322	867.063086363252	-187.27193002661295	91.00796142072483	576.3344394583588	-190.10465662375208	-102.38152057745255	431.8959120559313	-131.77837938596147	9.243705839563058	1854.5474625172226
240	0.7887	-116.72642828873921	211.08329491974763	1843.8730916559352	-218.53864172068393	-184.92747986321805	1860.6139483784004	-71.29295752584162	218.17077519552006	1563.232697953566	-96.04604027222543	-333.649055782462	1631.7968656440075	69.88829568010209	42.890774045716924	1709.436373569242	34.60111250622741	-128.87892554560986	1744.4515499427905	-129.6047479112179	89.59010100642483	1330.230942785177	-235.78694552878605	-120.87188965433447	1304.9447474947626	59.95104853256949	97.43315644833743	932.7080648077692	-167.76009594672598	-107.51689313231469	866.7266405234192	-178.45967717497965	90.60919775962229	579.7157561969693	-190.0037032232605	-101.2756879544589	432.1461072675852	-132.24550036175174	8.800444709559594	1854.748492703079
241	0.792	-116.70570116957717	210.6776723664061	1844.1293335961159	-218.75022389913016	-185.49713718451693	1860.9747590477848	-68.64354025543128	218.45678819743438	1564.1722188311364	-94.91413691029568	-333.5481726863603	1632.533460199178	70.47968994299676	42.92960080495398	1712.3677979931886	34.85596429934737	-128.67408937655782	1746.5904636024227	-128.84767177684324	88.92471908335695	1330.8818157885562	-235.99011952675002	-120.94374102284085	1304.7253555702493	67.07195350128906	95.69501676523082	936.6846492183048	-168.4222052402618	-107.156660137925	866.4080899094002	-169.62661588332367	89.87273758840531	582.9133892901154	-189.96985629671482	-100.01137919654164	432.3782397601816	-132.66231272803057	8.326336227145939	1854.9733482475456
242	0.7953	-116.60476198717912	210.26220719503573	1844.5584683309185	-218.92090747822124	-186.05755223494694	1861.2557579635666	-66.09151574088692	218.81526977521887	1565.2536420968836	-93.83188274690308	-333.47505627129493	1633.177584305999	70.82063227895554	42.83277682724664	1715.2720447882307	35.140940001940294	-128.5127137463121	1748.5367813972018	-128.04289876292532	88.57725274477484	1331.4339139929818	-236.0303870664759	-120.76821393434157	1304.5687981466851	73.97826028254315	93.70470941323896	940.5658500558152	-169.1713671968508	-106.50132732668871	866.1148187782462	-160.87518844749664	88.74136806248734	585.9004932882875	-190.0717908876365	-98.61324538584354	432.59663482695373	-133.00481812028588	7.83933894994065	1855.2247409727963
243	0.7986	-116.39922226534624	209.8530240280227	1845.175967787381	-219.04985375691723	-186.57244435523293	1861.4563498806865	-63.75820481527075	219.2158791959668	1566.450161499031	-92.82044688907024	-333.4388304702807	1633.7450035250654	70.87444285071454	42.58339990342042	1718.0596333084732	35.454565534805106	-128.40223573812554	1750.2826154643712	-127.18148233199993	88.59397054095669	1331.8704384968999	-235.91484766762676	-120.29825913194531	1304.488876687169	80.60399844635593	91.41493973249257	944.2882032374073	-170.05349396043127	-105.54666676981226	865.854917901413	-152.3180054992424	87.15444449776699	588.6488488361605	-190.38530984649802	-97.1113456869975	432.8068739955217	-133.24822812444265	7.362111927826522	1855.5033256190281
